<svg width="14" height="14" viewBox="0 0 14 14" fill="none" xmlns="http://www.w3.org/2000/svg">
<path fill-rule="evenodd" clip-rule="evenodd" d="M0.0327462 5.4131C0.00564442 2.93605 -0.00537413 1.92898 0.915966 0.971978C1.8829 -0.0306098 2.93884 -0.0217925 6.63652 0.00908362C7.40219 0.0154771 8.28113 0.0228164 9.296 0.0223176C10.9331 0.0251716 11.026 0.0386704 11.3363 0.0837104L11.3541 0.0862873C12.7725 0.290409 13.8489 1.29822 13.9861 3.04692C14.0048 3.2807 14.0048 10.7192 13.9867 10.9484C13.8576 12.59 12.9132 13.5316 11.7524 13.8311C10.883 14.0561 3.16945 14.0561 2.29888 13.8322C-0.0979346 13.2128 -0.0404575 10.8637 0.0228391 8.27682C0.0331678 7.8547 0.0436514 7.42624 0.0436514 6.99793C0.0436514 6.40981 0.0379072 5.8848 0.0327462 5.4131ZM6.51121 1.84481C6.67991 1.84603 6.84992 1.84726 7.02062 1.84726H7.01829C7.22133 1.84726 7.41767 1.84593 7.60763 1.84465C9.25389 1.83354 10.4202 1.82566 11.3066 2.71201C12.1895 3.5944 12.1832 4.74164 12.1739 6.44181C12.1729 6.62186 12.1719 6.8081 12.1719 7.0009C12.1719 7.1792 12.1726 7.3509 12.1732 7.51641C12.1778 8.75875 12.1812 9.6526 11.9015 10.3762C11.1942 12.1909 9.39658 12.1745 7.55119 12.1578C7.37408 12.1561 7.19653 12.1545 7.01945 12.1545C6.84984 12.1545 6.68072 12.1558 6.51271 12.157C4.60463 12.1709 2.84029 12.1838 2.13798 10.3762C1.85882 9.65753 1.86254 8.58889 1.86658 7.42594C1.86707 7.28548 1.86756 7.14365 1.86756 7.0009C1.86756 6.82516 1.86694 6.65559 1.86634 6.49185C1.86178 5.24903 1.85845 4.34237 2.13798 3.62504C2.84196 1.81832 4.59294 1.83096 6.51121 1.84481ZM7.38748 2.77047C7.12769 2.77292 6.85178 2.77552 6.55887 2.77598V2.77482C3.12311 2.77831 2.79745 2.84344 2.79745 6.99857C2.79745 11.106 2.9155 11.2235 7.0212 11.2235C7.22838 11.2235 7.43201 11.2257 7.63106 11.2279C9.59545 11.2495 11.1149 11.2661 11.2147 9.08166C11.5035 2.73171 11.0342 2.73613 7.38748 2.77047ZM9.15314 4.24961C9.15314 3.90825 9.42995 3.63143 9.77132 3.63143C10.1127 3.63143 10.3895 3.90825 10.3895 4.24961C10.3895 4.59098 10.1127 4.86779 9.77132 4.86779C9.42995 4.86779 9.15314 4.59098 9.15314 4.24961ZM4.37459 7.0009C4.37459 5.53948 5.5592 4.35429 7.02062 4.35429C8.48203 4.35429 9.66606 5.53948 9.66606 7.0009C9.66606 8.46231 8.48203 9.64692 7.02062 9.64692C5.5592 9.64692 4.37459 8.46231 4.37459 7.0009ZM7.02062 5.28302C9.29154 5.28302 9.29445 8.71877 7.02062 8.71877C4.75027 8.71877 4.74678 5.28302 7.02062 5.28302Z" fill="#23252D"/>
</svg>
