<svg width="19" height="18" viewBox="0 0 19 18" fill="none" xmlns="http://www.w3.org/2000/svg">
<path d="M14.3279 3.65562C12.9029 2.27812 11.0279 1.5 9.03105 1.5C3.2998 1.5 -0.298945 7.70937 2.56293 12.6487L1.50293 16.5L5.4623 15.4675C7.1873 16.3994 8.60043 16.3169 9.0348 16.3719C15.6804 16.3719 18.9886 8.33187 14.3186 3.68L14.3279 3.65562Z" fill="#23252D"/>
<path d="M9.04461 15.0927L9.04086 15.0921H9.03086C7.04211 15.0921 5.77148 14.1502 5.64648 14.0958L3.30273 14.7052L3.93086 12.4271L3.78148 12.1927C3.16273 11.2077 2.83398 10.0733 2.83398 8.90518C2.83398 3.40955 9.54961 0.661426 13.4359 4.5458C17.3127 8.38955 14.5909 15.0927 9.04461 15.0927Z" fill="#23252D"/>
<path d="M12.4449 10.4414L12.4393 10.4882C12.2511 10.3945 11.3349 9.94637 11.1643 9.8845C10.7811 9.74262 10.8893 9.862 10.1536 10.7045C10.0443 10.8264 9.93552 10.8357 9.74989 10.7514C9.56239 10.6576 8.96052 10.4607 8.24802 9.82325C7.69302 9.32637 7.32052 8.717 7.21052 8.5295C7.02739 8.21325 7.41052 8.16825 7.75927 7.50825C7.82177 7.377 7.78989 7.27387 7.74364 7.18075C7.69677 7.087 7.32364 6.16825 7.16739 5.802C7.01739 5.437 6.86302 5.48325 6.74739 5.48325C6.38739 5.452 6.12427 5.457 5.89239 5.69825C4.88364 6.807 5.13802 7.95075 6.00114 9.167C7.69739 11.387 8.60114 11.7957 10.2536 12.3632C10.6999 12.5051 11.1068 12.4851 11.4286 12.4389C11.7874 12.382 12.533 11.9882 12.6886 11.5476C12.848 11.107 12.848 10.7414 12.8011 10.657C12.7549 10.5726 12.6324 10.5257 12.4449 10.4414V10.4414Z" fill="#F4F4F4"/>
</svg>
