<svg width="19" height="18" viewBox="0 0 19 18" fill="none" xmlns="http://www.w3.org/2000/svg">
<path d="M14.4778 7.79456C14.4963 5.67975 12.6466 3.74103 10.3546 3.47294C10.309 3.46768 10.2593 3.45967 10.2068 3.45119C10.0933 3.43288 9.97594 3.41406 9.85755 3.41406C9.38778 3.41406 9.26221 3.7354 9.22915 3.92704C9.19701 4.11338 9.22767 4.26985 9.32014 4.39232C9.47571 4.59831 9.74943 4.63488 9.96929 4.66418C10.0337 4.67285 10.0945 4.68091 10.1454 4.69204C12.2047 5.14013 12.8981 5.84461 13.237 7.8329C13.2453 7.88149 13.249 7.94135 13.253 8.00484C13.2678 8.24251 13.2986 8.737 13.8445 8.737H13.8446C13.89 8.737 13.9388 8.73318 13.9897 8.72563C14.4981 8.6504 14.4821 8.1984 14.4745 7.98122C14.4723 7.92006 14.4703 7.8622 14.4756 7.82372C14.477 7.81403 14.4777 7.8043 14.4778 7.79456Z" fill="#23252D"/>
<path d="M9.72462 2.69664C9.78562 2.70093 9.84336 2.70503 9.89143 2.7122C13.273 3.21861 14.8281 4.77879 15.2591 8.09751C15.2664 8.15392 15.2676 8.22273 15.2688 8.29558C15.2731 8.55487 15.2819 9.09426 15.8768 9.10544L15.8953 9.10563C16.0818 9.10563 16.2302 9.05085 16.3364 8.94268C16.5215 8.75406 16.5086 8.47386 16.4982 8.24867C16.4957 8.19343 16.4932 8.14139 16.4938 8.09583C16.5369 4.70165 13.5198 1.62382 10.0373 1.50936C10.0229 1.5089 10.0091 1.50964 9.99519 1.51155C9.98835 1.51253 9.97568 1.51374 9.95396 1.51374C9.91923 1.51374 9.87651 1.51081 9.83121 1.50783C9.77643 1.50419 9.71434 1.5 9.65139 1.5C9.09681 1.5 8.99137 1.88385 8.97788 2.11267C8.94679 2.64149 9.47214 2.67871 9.72462 2.69664Z" fill="#23252D"/>
<path d="M15.0955 12.3866C15.0236 12.3331 14.9492 12.2777 14.8796 12.2232C14.5104 11.9338 14.1176 11.6671 13.7377 11.4092C13.6589 11.3557 13.5801 11.3022 13.5015 11.2485C13.0149 10.9157 12.5775 10.7539 12.1641 10.7539C11.6075 10.7539 11.1221 11.0535 10.7215 11.6441C10.544 11.906 10.3287 12.0333 10.0634 12.0333C9.90646 12.0333 9.72817 11.9897 9.53352 11.9036C7.96288 11.21 6.84134 10.1466 6.19998 8.74293C5.88995 8.06449 5.99045 7.62101 6.53609 7.26008C6.84593 7.0553 7.42265 6.67406 7.3818 5.944C7.33554 5.11495 5.45707 2.62043 4.6656 2.33711C4.3305 2.21711 3.97842 2.21599 3.61725 2.33432C2.70738 2.63217 2.05445 3.15526 1.72887 3.84694C1.41425 4.51527 1.42845 5.30002 1.76996 6.11636C2.75723 8.47657 4.14528 10.5344 5.89569 12.2325C7.60903 13.8948 9.71487 15.2564 12.1547 16.2794C12.3746 16.3716 12.6052 16.4218 12.7737 16.4585C12.8311 16.4711 12.8806 16.4818 12.9168 16.4914C12.9366 16.4967 12.9571 16.4995 12.9776 16.4997L12.9969 16.4998C12.9969 16.4998 12.9969 16.4998 12.997 16.4998C14.1445 16.4998 15.5224 15.4787 15.9455 14.3146C16.3163 13.2952 15.6394 12.7914 15.0955 12.3866Z" fill="#23252D"/>
<path d="M10.2303 5.39299C10.0338 5.39783 9.62496 5.40771 9.48149 5.81322C9.41438 6.00272 9.42242 6.16725 9.50541 6.30225C9.62721 6.50033 9.86056 6.56103 10.0728 6.59433C10.8426 6.71461 11.2379 7.12912 11.317 7.89868C11.3537 8.25751 11.6018 8.50809 11.9204 8.50809H11.9205C11.944 8.50809 11.9681 8.50674 11.992 8.5039C12.3752 8.4595 12.561 8.18536 12.5442 7.68915C12.5503 7.17127 12.272 6.58334 11.7986 6.11503C11.3237 5.64528 10.7511 5.38073 10.2303 5.39299Z" fill="#23252D"/>
</svg>
