<svg width="19" height="18" viewBox="0 0 19 18" fill="none" xmlns="http://www.w3.org/2000/svg">
<path d="M14.9392 10.1311C14.6482 9.71114 14.7314 9.52429 14.9392 9.14886C14.9429 9.14457 17.3452 5.35086 17.5927 4.06429L17.5942 4.06343C17.7172 3.59457 17.5942 3.25 16.9994 3.25H15.0314C14.5304 3.25 14.2994 3.54571 14.1757 3.87657C14.1757 3.87657 13.1737 6.61771 11.7562 8.39457C11.2987 8.908 11.0872 9.07257 10.8374 9.07257C10.7144 9.07257 10.5232 8.908 10.5232 8.43914V4.06343C10.5232 3.50114 10.3829 3.25 9.96818 3.25H6.87368C6.55943 3.25 6.37268 3.51229 6.37268 3.75657C6.37268 4.28971 7.08143 4.41229 7.15493 5.91229V9.16686C7.15493 9.88 7.04168 10.0111 6.79043 10.0111C6.12143 10.0111 4.49768 7.25886 3.53543 4.10886C3.34118 3.49771 3.15143 3.25086 2.64668 3.25086H0.67793C0.11618 3.25086 0.00292969 3.54657 0.00292969 3.87743C0.00292969 4.462 0.671929 7.36857 3.11393 11.2086C4.74143 13.8297 7.03343 15.25 9.11843 15.25C10.3717 15.25 10.5247 14.9346 10.5247 14.392C10.5247 11.8874 10.4114 11.6509 11.0392 11.6509C11.3302 11.6509 11.8312 11.8154 13.0012 13.0797C14.3384 14.5789 14.5582 15.25 15.3067 15.25H17.2747C17.8357 15.25 18.1199 14.9346 17.9564 14.3123C17.5822 13.0034 15.0532 10.3111 14.9392 10.1311V10.1311Z" fill="#23252D"/>
</svg>
